<svg xmlns="http://www.w3.org/2000/svg" width="64" height="48" viewBox="0 0 64 48"><g><g><path fill="#f5f7f9" d="M55.149 22.322c3.858 2.685 5.787 6.49 5.787 11.412 0 4.14-1.362 7.553-4.085 10.238C54.128 46.657 50.667 48 46.468 48c-4.085 0-7.518-1.259-10.298-3.776C33.39 41.706 32 38.21 32 33.734c0-3.356 1.305-7.16 3.915-11.412L49.532 0H64zm-32 0c3.858 2.685 5.787 6.49 5.787 11.412 0 4.14-1.362 7.553-4.085 10.238C22.128 46.657 18.667 48 14.468 48c-4.085 0-7.518-1.259-10.298-3.776C1.39 41.706 0 38.21 0 33.734c0-3.356 1.305-7.16 3.915-11.412L17.532 0H32z"/></g></g></svg>