<svg xmlns="http://www.w3.org/2000/svg" width="16" height="23" viewBox="0 0 16 23"><g><g><path fill="#fff" d="M14.476 10.772A1.927 1.927 0 0 1 16 12.65v8.433A1.912 1.912 0 0 1 14.095 23H1.905A1.912 1.912 0 0 1 0 21.083V12.65c0-.92.655-1.694 1.524-1.878V6.517C1.524 2.929 4.429 0 8 0s6.476 2.929 6.476 6.517zm-9.905-4.26v4.211h6.858v-4.21c0-1.9-1.539-3.446-3.429-3.446S4.571 4.613 4.571 6.512zm5.3 12.15l-.792-2.135c.505-.353.816-.937.816-1.574 0-1.06-.853-1.92-1.9-1.92s-1.9.86-1.9 1.92c0 .637.311 1.221.816 1.574l-.791 2.135a.39.39 0 0 0 .043.353c.071.1.188.162.312.162h3.04c.124 0 .24-.062.312-.162a.39.39 0 0 0 .043-.353z"/></g></g></svg>