<svg xmlns="http://www.w3.org/2000/svg" width="19" height="20" viewBox="0 0 19 20"><g><g><path fill="#fff" d="M6.803 14.744a2.457 2.457 0 1 0 0 4.915 2.457 2.457 0 0 0 0-4.915m0 3.277a.82.82 0 1 1 0-1.64.82.82 0 0 1 0 1.64m7.379-3.277a2.46 2.46 0 0 0-2.464 2.458 2.46 2.46 0 0 0 2.464 2.457 2.46 2.46 0 0 0 2.464-2.457 2.46 2.46 0 0 0-2.464-2.458m0 3.277a.822.822 0 0 1-.826-.82c0-.451.37-.818.826-.818.456 0 .825.367.825.819 0 .452-.37.819-.825.819m-9.017-6.553c0-.453.366-.819.819-.819h7.21a3.435 3.435 0 0 0 3.2-2.216l1.826-4.87a.818.818 0 0 0-.768-1.106H5.165A.838.838 0 0 0 5 2.474L4.493 1.08A1.638 1.638 0 0 0 2.953 0H1.07a.82.82 0 0 0 0 1.639h1.884l2.693 7.406a2.457 2.457 0 0 0 .338 4.88h9.83a.82.82 0 1 0 0-1.638h-9.83a.819.819 0 0 1-.82-.819"/></g></g></svg>