<svg xmlns="http://www.w3.org/2000/svg" width="43" height="40" viewBox="0 0 43 40"><g><g><g><path fill="#fadb83" d="M21.033 36.108l-3.55-10.63L6.83 21.933a.73.73 0 0 1-.497-.63.73.73 0 0 1 .36-.703l35.2-20.5a.74.74 0 0 1 .793.03c.233.175.35.453.296.746l-5.866 30.75a.73.73 0 0 1-.366.498.769.769 0 0 1-.621.044l-12.348-4.803-1.328 8.625a.73.73 0 0 1-.663.615h-.061a.724.724 0 0 1-.697-.498zm-2.738-11.905c.22.074.391.25.465.454l2.706 8.112 1.006-6.516a.753.753 0 0 1 .358-.527.689.689 0 0 1 .633-.044l12.378 4.803 5.401-28.304-32.41 18.874z"/></g><g><path fill="#fadb83" d="M12.956 39.152a.73.73 0 0 0 .725-.644.733.733 0 0 0-.628-.82 12.966 12.966 0 0 1-2.16-.484.736.736 0 0 0-.919.469.73.73 0 0 0 .478.922c.801.25 1.61.44 2.404.542.033.015.066.015.1.015zm3.501-.059h.123c.254-.044.51-.102.766-.16a.723.723 0 0 0 .542-.88.722.722 0 0 0-.883-.541 5.45 5.45 0 0 1-.668.132.736.736 0 0 0-.603.849c.06.351.371.6.723.6zM7.459 37.22a.732.732 0 0 0 .64-.366.73.73 0 0 0-.284-.996 24.233 24.233 0 0 1-1.921-1.2.728.728 0 0 0-1.022.174.74.74 0 0 0 .182 1.026c.683.469 1.372.908 2.049 1.274a.773.773 0 0 0 .356.088z"/></g><g><path fill="#fadb83" d="M23.197 27.09a.708.708 0 0 1-.437-.147.713.713 0 0 1-.151-1.01l13.106-17.63-17.132 17.118a.75.75 0 0 1-1.038 0 .737.737 0 0 1 0-1.04l24.2-24.16a.73.73 0 0 1 .998-.045c.29.264.34.689.109.996L23.785 26.797a.736.736 0 0 1-.588.293"/></g><g><path fill="#fadb83" d="M21.733 36.604a.68.68 0 0 1-.458-.16.727.727 0 0 1-.116-1.026l5.867-7.321a.734.734 0 0 1 1.033-.117.746.746 0 0 1 .114 1.04l-5.867 7.32a.74.74 0 0 1-.573.264"/></g><g><path fill="#fadb83" d="M2.057 33.218a.716.716 0 0 1-.496-.19c-.455-.425-.905-.85-1.346-1.289a.737.737 0 0 1 0-1.04.723.723 0 0 1 1.038 0c.427.425.858.85 1.3 1.245a.739.739 0 0 1 .045 1.04.775.775 0 0 1-.541.234"/></g></g></g></svg>