<?xml version="1.0" encoding="UTF-8"?>
<svg width="33px" height="33px" viewBox="0 0 33 33" version="1.1" xmlns="http://www.w3.org/2000/svg" xmlns:xlink="http://www.w3.org/1999/xlink">
    <!-- Generator: Sketch 59 (86127) - https://sketch.com -->
    <title>Combined Shape</title>
    <desc>Created with Sketch.</desc>
    <g id="Page-1" stroke="none" stroke-width="1" fill="none" fill-rule="evenodd" opacity="0.795200893">
        <g id="01_01-Homepage-Logged-In-Dropdown-Hover" transform="translate(-771.000000, -5061.000000)" fill="#FFFFFF">
            <g id="Footer-2---logos" transform="translate(0.000000, 4827.000000)">
                <g id="Group">
                    <g id="Footer">
                        <g id="Socials" transform="translate(642.000000, 234.000000)">
                            <path d="M145.5,0 C154.612698,0 162,7.38730163 162,16.5 C162,25.6126984 154.612698,33 145.5,33 C136.387302,33 129,25.6126984 129,16.5 C129,7.38730163 136.387302,0 145.5,0 Z M141.353894,13.980695 L138.242868,13.980695 L138.242868,24 L141.353894,24 L141.353894,13.980695 Z M149.270239,13.7374517 C147.755204,13.7374517 146.743254,14.5656371 146.326908,15.3532819 L146.326908,15.3532819 L146.28643,15.3532819 L146.28643,13.980695 L143.314187,13.980695 L143.314187,24 L146.419429,24 L146.419429,19.042471 C146.419429,17.7393822 146.662298,16.4710425 148.281419,16.4710425 C149.877409,16.4710425 149.894757,17.965251 149.894757,19.1293436 L149.894757,24 L153,24 L153,18.5096525 C153,15.8108108 152.41596,13.7374517 149.270239,13.7374517 Z M139.804163,9 C138.803778,9 138,9.81081081 138,10.8069498 C138,11.8030888 138.803778,12.6138996 139.804163,12.6138996 C140.798766,12.6138996 141.608327,11.8030888 141.608327,10.8069498 C141.608327,9.81081081 140.798766,9 139.804163,9 Z" id="Combined-Shape"></path>
                        </g>
                    </g>
                </g>
            </g>
        </g>
    </g>
</svg>