<svg xmlns="http://www.w3.org/2000/svg" width="164" height="282" viewBox="0 0 164 282"><g><g><path fill="#f5f5f5" d="M65.341 256.847v2.598c0 .472.824 2.243.824 2.243l1.53 1.418 1.767-.237-1.413-2.243-2.12-3.78zm2.237-10.274l2.12 2.716.94 1.18 1.767.71.706-1.772-1.177-2.126-3.179-2.361-1.295.236v1.417zm-23.311-21.61l1.884 1.889 5.298.236 1.06-.709-3.65-1.417-4.239-2.48-1.413.709zm-7.182-1.772l.706 1.771.705 1.417 3.76.118.235-1.535-1.528-1.771zM144.692 282l4.592-.709 1.648-2.361.47-1.89-3.531-.354-1.178-2.008.707-2.243.118-7.322 2.707-1.299 3.061-2.952.59-5.55 2-4.606 2.237-2.48 4.003-1.89 1.649-1.18.235-1.653-.824-.709-1.177-1.771-1.295-6.377-3.297-6.141.471-3.66-20.132-30.822-49.636-73.57-14.87-22.674L83.449 58.69l9.419-36.962-30.14-7.794L17.177 0l-1.99 5.786-.235 8.74L8.83 28.46l-3.65 3.07-.353 1.3-2.12.944-1.765 4.96L0 42.513l3.179 4.96 1.883 4.96 1.295 4.25-.353 7.676-2.119 3.661-.706 6.85L2 79.238l2.12 4.605 3.178 5.314 2.708 5.669 1.53 4.723-.353 3.78-.353.59v2.48l6.711 7.44-.589 2.833-.706 2.716-.706 2.244.235 9.684 2.472 4.369 2.237 3.07 3.179.59 1.177 3.19-1.295 4.25-2.472 1.89h-1.295l-.942 4.605.589 3.425 3.767 5.196 1.884 6.259 1.766 5.55 1.53 3.66 4.003 6.85 1.766 3.07.589 3.425 1.883 1.181v2.834l-.941 2.244-2.12 8.384-.588 2.244 2.825 3.188 4.945.59 5.298 2.127 4.592 2.48h3.414l3.414 3.66 3.061 5.669 1.295 2.716 4.592 2.48 5.65.944 1.767 2.48.706 3.78-1.766.708.353 1.18 3.768.945 3.178.236 3.415 5.55 4.591 4.96.942 2.717 3.061 4.96.353 3.778v11.1l.589 2.126 11.773 1.772 23.193 3.188z"/></g></g></svg>