<svg xmlns="http://www.w3.org/2000/svg" width="255" height="127" viewBox="0 0 255 127"><g><g><path fill="#f5f5f5" d="M255 54.58l-2.644-18.103 1.534.055-7.395-14.184.27-15.815c-4.604-1.07-11.755-2.744-12.953-2.744-1.514 0-4.162.38-7.946 1.138-3.78.755-8.694 1.518-8.694 1.518l-8.694-5.311L184.658 0l-2.648 5.307-6.807 16.304h-21.932c-1.514 0-9.073-9.1-9.073-9.1l-2.585-1.586-2.884 15.617-5.945-1.985-2.64-1.324-5.288 1.986.66 10.596-12.55 4.637-3.304 7.945 11.233 11.263 5.945 8.611-7.269 5.96-10.573-6.621H94.465l-4.62 7.283-15.858 7.288-24.442 5.299-2.64-6.627-20.483-.661-1.32 8.611s-7.268-3.97-9.249-5.96c-1.98-1.99-4.624-5.96-4.624-5.96L0 78.868l1.32 8.612 1.324 10.596s-1.324 2.651-.664 4.637c.664 1.99 7.269 7.95 7.269 7.95l11.889 3.312 9.249-3.979 3.964 5.303 12.553 3.309 7.265-4.633s4.624-7.95 6.609-7.95h13.209l17.178-7.949v6.626l6.608 8.612 11.225 7.945 38.538 3.532 12.777.885L177.486 127l12.776-12.805 18.93.442 5.29-5.302h5.725l5.726-1.766-1.324-2.205v-5.298h6.033l1.896-7.069 8.807-3.532v-4.856l-4.843-11.92 3.523-5.303 3.965-5.298-5.726-3.09 3.081-4.417z"/></g></g></svg>