<svg xmlns="http://www.w3.org/2000/svg" width="135" height="243" viewBox="0 0 135 243"><g><g><path fill="#f5f5f5" d="M123.03 31.875l-1.57-5.115-2.55-7.28-3.14-3.542-2.943-5.116L112.042 0 80.843 3.542 46.701 5.509H22.565l.393 4.132 4.317 1.771 2.158 2.755.785 2.754 7.653 6.69 1.373 4.723-1.373 6.493-3.336 7.28-1.57 5.312-4.71 3.739-3.727 1.18-10.204 2.558-2.55 8.068 1.177 2.164 3.728 3.542-.393 8.46-4.12 3.149-.981 2.557v5.51l-3.532 1.18-2.747 2.361-.785 2.362.785 3.935-3.14 2.558L0 106.25l.589 7.674 4.513 13.773 13.735 14.954 11.185 7.28v8.657l1.373 2.362 12.95 1.18 5.299 2.755-1.374 6.886-4.317 12.2-1.57 5.902 3.925 7.28 12.558 10.429 9.419 1.574 4.317 10.035 3.924 6.69-1.766 5.51 2.943 7.476L81.04 243l3.14-.59 1.962-4.329 4.71-3.345 5.493-1.968 11.97 4.92.981-.394v-2.164l-2.355-5.313.785-5.51 4.71-3.147 6.671-2.362-.981-2.558-1.57-3.935 2.355-2.558 1.962-5.312v-7.87l.785-9.642 4.906-5.903 3.531-7.477 4.906-7.87-.981-10.428-3.532-6.297-.589-6.493 1.57-10.428-1.374-14.167-2.158-31.088-2.747-30.105-1.766-23.02z"/></g></g></svg>