<svg xmlns="http://www.w3.org/2000/svg" width="205" height="134" viewBox="0 0 205 134"><g><g><path fill="#f5f5f5" d="M169.09 6.474l4.144 4.12.592 1.374-3.946 5.886.592 7.847 5.13 8.044 6.116 3.14 4.735.588 1.776 3.531.395 4.709 4.932 1.962 1.776 2.158.987 3.14 7.497 6.474L205 63.174l-1.381 5.886-3.354 7.26-1.184 4.708-4.144 3.139-3.156.98-11.247 2.944-3.157 9.417 1.579 3.532 3.354 2.942-.395 6.867-3.748 2.747-1.382 3.531v4.709l-2.762.785-3.354 2.747-.987 3.335.79 3.335-2.565 1.962-4.538-5.297-2.763-5.494-16.376 1.57-19.73 1.177-97.075 2.354-3.156-8.436-.79-13.145-2.762-8.24-1.381-10.202-4.34-7.26-1.974-9.024L7.695 56.7l-2.17-10.987-2.763-3.728-2.565-5.69 3.354-7.455L5.92 16.873.592 12.556 0 7.848l1.381-4.709 3.552-.588 120.553-1.178L167.315 0z"/></g></g></svg>