<svg xmlns="http://www.w3.org/2000/svg" width="222" height="206" viewBox="0 0 222 206"><g><g><path fill="#f5f5f5" d="M220.668 108.043c-.114 1.703-.445 3.34-.796 4.996-.255 1.202-.538 2.43-.073 3.693.268.731-.13 1.478-.359 2.186-.534 1.65-.926 3.346-1.97 4.814-.42.588-.769.974-1.503.995-.591.017-1.17.22-1.777.133-.106-.015-.298.102-.34.204-.07.168.107.242.243.299.76.316 1.47 1.259 2.342.163.123-.154.376-.119.533.05.23.247.268.565.117.834a3.834 3.834 0 0 1-1.591 1.536c-.445.228-.916.34-1.163.846-.306.63-1.018.224-1.476.53-.28.188-.544.208-.096.564.483.385-.002.858-.165 1.195-.323.666-.767 1.256-.932 2.018-.095.435-.475.703-.818.095-.16-.281-.372-.553-.68-.286-.26.226-.136.642.055.822 1.568 1.484.656 2.93-.094 4.314-.565 1.04-1.175 1.92-1.087 3.28.056.873-.277 1.914-.45 2.878-.077.43-.115 1.013-.89.928-.403-.043-.512.388-.56.758a7.784 7.784 0 0 1-1.15 3.212c-.408.642-.571 1.417-.515 2.164.11 1.412-.163 2.77-.385 4.144-.144.885-.245 1.752-1.005 2.399-.33.28-.268.74.031 1.088.165.191.372.42.53-.02.06-.167.017-.448.31-.37.095.026.2.236.202.363.015.952.412 2.05-.917 2.524-.114.04-.2.216-.258.348-.57 1.29-1.695 1.591-2.945 1.67-.348.02-.7.032-1.048.018-.765-.032-1.105-.706-1.409-1.197-.3-.487.52-.586.736-.947.05-.082.16-.126.214-.206.225-.334 1.151-.135.827-.722-.261-.474-.721.3-1.156.31-.141.004-.281.063-.422.1-.036.726-.678.58-1.097.76-.41.176-.592.375-.073.676.165.096.304.267.407.432.18.29.452.599.255.956-.168.304-.53.248-.818.214-.57-.067-1.078.167-1.608.29-.492.113-.95.175-1.46-.003-.742-.26-1.407-.007-1.678.675-.32.806-.577 1.606-1.534 1.879-.112.032-.255.218-.256.335-.011 1.125-.953 1.58-1.596 2.24-.497.51-1.04.938-1.849.663-.574-.195-.998.325-1.526.424-.195.036-.4.45-.45.719-.057.318.303.28.513.386.529.268.696 1.737.258 2.08-.27.213-.445-.019-.614-.201-.488-.53-.611-1.243-.942-1.85-.389-.712-.62-.745-.937.027-.35.85-.592.419-.87.036-.334-.46-.672-.778-1.32-.803-.865-.035-.995-.87-1.271-1.49-.445-1-.647-1.076-1.536-.45-.242.17-.444.398-.664.6-.282.261-.583.41-.915.095-.353-.333-.327-.71-.048-1.069.152-.195.345-.36.528-.53.629-.579.58-1.377.564-2.098-.016-.708-1.485-1.076-2.088-.593-.426.342-.499.846-.677 1.306-.205.53.002.635.481.49.2-.062.431-.062.521.146.112.259-.032.515-.234.657-.57.4-1.143.806-1.755 1.133-1.103.587-2.084 1.27-2.843 2.31-1.028 1.409-1.648 1.455-3.066.433-.192-.138-.286-.39-.6-.344-1.602.233-2.525-.905-3.573-1.79-.245.03-.509.014-.732.102-.638.248-1.05 0-1.376-.532-.13-.213-.295-.403-.437-.608-.14-.202-.27-.41-.406-.616-.042.24-.1.479-.124.721-.03.303-.208.424-.477.485-.335.075-.765 0-.967.322-.6.956-1.133.452-1.683-.029-.151-.131-.33-.247-.437-.409-.673-1.016-1.65-1.133-2.755-1.038-1.44.124-1.537.024-1.908-1.422-.976.185-1.363-.489-1.567-1.223-.207-.75-.482-1.27-1.348-1.341-.497-.042-.726-.478-.873-.926-.155-.472-.274-.958-.47-1.412-.334-.771-.584-1.38.08-2.253.564-.746.193-1.88-.238-2.718-.403-.785-.42-1.735-1.09-2.402-.23-.228-.031-.573-.025-.866.006-.282-.208-.363-.37-.174-.463.545-.778-.005-.964-.203-.513-.543-.834-1.223-1.554-1.63-.461-.26-.1-1.035.524-.956 1.154.145.79-.325.41-.826-.363-.48-.282-.817.238-1.077.2-.1.363-.241.19-.456a.977.977 0 0 0-.483-.318c-.246-.064-.306.163-.376.353-.138.373-.357.729-.423 1.113-.13.743-.44 1.217-1.267 1.133-.452-.046-.55.355-.796.58-.763.702-1.678 1.073-2.71 1.065-.619-.004-.798-.399-.37-.854 1.169-1.243 1.223-2.916 1.772-4.396.178-.482-.036-.897-.39-1.21-.801-.706-1.452-1.498-1.771-2.545-.144-.471-.42-.52-.72-.07a3.688 3.688 0 0 0-.624 1.66 38.493 38.493 0 0 1-.48 2.958c-.142.718-.506 1.18-1.363.974-.691-.165-1.258.174-1.796.564-.322.233-.644.478-.996.657-.307.157-.675.277-.985.01-.302-.26-.015-.544.032-.818.069-.392.075-.803.2-1.175.204-.606.727-.725 1.311-.797 1.435-.179 1.66-.506 1.429-1.975-.204-1.292-.21-2.573.205-3.823.357-1.073.54-2.266 1.674-2.881.347-.189.43-.467.226-.732-.826-1.078-.665-1.95.121-3.073.5-.714-.158-1.645-.866-2.255.085 1.426-.375 2.143-1.768 2.714-.748.305-1.426.71-1.962 1.32-.173.198-.238.466-.022.672.25.24.462.078.601-.154.232-.384.463-.95.978-.657.592.337.158.863-.02 1.314-.398 1.006-.842 1.928-2.131 2.005-.358.021-.529.43-.796.648-.233.19-.568.46-.789.2-1.06-1.244-.69-.076-.732.415-.022.263-.126.486-.378.599-.296.132-.427.323-.489.669-.202 1.14-.795 2.087-1.603 2.908-.434.44-.74.878-.434 1.587.26.603-.022.97-.628.942-.754-.034-1.488-.182-1.967-.88-.143-.21-.389-.511-.235-.66.772-.747-.071-.835-.354-1.287-.487-.776-.67-1.748-.95-2.647-.177-.568-.25-1.154-.933-1.415-.874-.334-.604-1.55-1.434-1.977-.164-.084-.045-.373.234-.335.29.04.488-.079.608-.318.061-.122.058-.277.084-.417-.09-.013-.184-.046-.272-.035-.193.024-.519.153-.556.093-.842-1.353-2.575-1.118-3.63-2.07-.183-.165-.343-.355-.51-.54-.356-.395-.459-.778.102-1.08.462-.248.58-.67.577-1.135-.007-.836-.383-1.101-1.651-1.213-.06.184-.108.375-.189.55-.087.19-.252.345-.464.279-.103-.032-.244-.246-.22-.337.344-1.274-1.263-1.613-1.294-2.721-.005-.183-.255-.154-.415.068-.967 1.342-1.018 1.345-2.49.673-.317-.144-.662-.232-.967-.396-.258-.14-.537-.308-.702-.539-.498-.699-.475-.707-1.156-.304-.298.175-.652.272-.917.484-.69.555-1.175.397-1.79-.206a8.11 8.11 0 0 0-2.854-1.828c-.979-.369-2.017-.784-2.772-1.615-.167-.183-.435-.344-.625-.063-.17.251.114.297.28.374.25.117.418.309.31.586-.095.247-.35.438-.593.325-.447-.208-.713-.108-.995.28-.22.303-.618.29-.969.282-2.616-.055-5.166.277-7.713.935-1.232.319-2.343.64-3.36 1.44-.77.605-1.665 1.076-2.72 1.147-.67.045-1.17.766-1.932.592-.153.31-.345.582-.693.7-.185.062-.522.111-.516-.048.039-1.132-.8-.326-1.155-.55.136 1.113.133 1.151-.779 1.29-1.325.2-2.64.42-3.99.004-.898-.277-1.774-.061-2.505.61-.511.47-1.054.905-1.59 1.348-.15.125-.31.266-.49.321-1.908.585-1.91.58-3.278 1.748-.54.462-1.1.83-1.857.865-1.205.054-1.95.822-2.202 1.898-.267 1.144-.85 2.054-1.397 3.057-.64 1.17-1.617 1.533-2.59 2.078-.317.177-.655.299-1 .142-1.128-.511-2.262-.6-3.42-.117-.272.114-.477-.046-.682-.19-.159-.113-.338-.338-.52-.188-1.216 1.005-2.534-.012-3.817.166-.825.114-1.744-.141-2.618.155-.22.074-.513.108-.65-.179-.106-.223.07-.37.22-.502.581-.509.374-.95-.122-1.356-.155-.127-.357-.21-.548-.088-.217.14-.095.312-.043.512.21.8-.166 1.511-.992 1.795-.985.339-1.963.738-3.039.714-1.251-.028-2.378.239-3.159 1.345-.102.144-.316.209-.485.306-.154.761-.191 1.588-.986 2.025-.436.239-.91.448-.754-.427.078-.445-.17-.511-.512-.372-.323.13-.641.236-.993.165-.22.383-.462.753-.523 1.212-.026.19-.097.498-.214.534-1.017.31-1.486 1.284-2.294 1.838a.482.482 0 0 1-.547.026c-.615-.333-.626-.327-.83.216-.122.325-.165.683-.416.952-.136.145-.33.442-.394.416-.883-.359-1.866.5-2.69-.216-.3-.261-.537-.283-.931-.189-1.632.394-3.273.646-4.901-.09-.4-.182-.867-.22-1.306-.31-.258-.054-.565-.156-.555-.415.034-.931-.722-1.134-1.306-1.431-.592-.301-1.021-.816-1.6-1.1-.676-.33-1.214-1.087-2.155-.7-.316.129-.553-.172-.676-.46-.606-1.424-.577-2.93-.503-4.43.02-.42.339-.362.666-.258 1.174.376 1.726.148 2.24-.923.414-.858.529-1.823.743-2.729.113-.48-.185-1.26-.6-1.78-.292-.364-.337-.728-.073-1.095.768-1.072.494-2.275.48-3.453-.03-2.437-1.65-4.217-2.564-6.288-.638-1.446-1.768-2.668-1.933-4.33-.04-.399-.124-.784-.017-1.188.233-.874.755-1.794-.456-2.435-.154-.082-.128-.56-.135-.856-.036-1.504.04-3.035-1.422-4.045-.27-.187-.089-.374.097-.593.323-.383.285-.416-.434-.696l.015.014c-.804-.629-.998-1.67-1.63-2.418-.241-.288-.051-.551.192-.75.295-.241.6-.47.9-.703-.336.003-.673-.01-1.005.018-1.231.108-1.733-.271-1.844-1.506-.058-.642-.105-1.308.004-1.935.131-.758.244-1.473-.132-2.188-.26-.495.171-.71.431-.993.208-.226.433-.509.15-.772-.322-.298-.496.05-.711.257-.366.351-.198 1.243-.905 1.142-.465-.067-.648-.719-.907-1.138-.718-1.162-1.76-2.041-2.628-3.073-.355-.422-.359-.699-.083-1.17.293-.5.484-.63.802-.088.277.47.568.943.761 1.45.141.37.31.687.707.62.453-.076.574-.482.609-.913.042-.523-.246-.836-.625-1.113-1.119-.82-1.467-2.096-1.923-3.304-.106-.281-.168-.628.114-.832.308-.221.577.033.78.238.604.608 1.178 1.247 1.034 2.21-.07.471-.003.768.596.746.597-.022.752.59 1.098.924.136.131.193.392.415.375.346-.026.264-.368.342-.583.38-1.052.207-2.134.142-3.207-.019-.32-.219-.524-.552-.624-.844-.254-1.251-.95-1.601-1.681-.216-.451-.41-.894-.814-1.236-.46-.389-.631-.726.25-.79.406-.03.232-.364.02-.5-1.077-.685-1.083-.677-.654-1.848.068-.184.178-.364.193-.553.01-.121-.088-.287-.189-.373-.135-.115-.269-.032-.352.117-.073.131-.148.261-.223.39-.244.423-.537.427-.81.052-.57-.78-.668-1.66-.43-2.573.166-.636.658-.182.995-.249.14-.027.345-.018.401-.103.137-.208-.055-.328-.2-.47-.78-.768-.872-.944-.298-1.894.643-1.064.913-2.156.965-3.393.042-.986-.343-1.822-.606-2.69-.167-.555.121-.585.41-.736.131-.557.45-1.03.263-1.704-.298-1.073.682-1.799 1.01-2.715.057-.16.263-.149.387-.057.11.082.273.283.245.33-.604.99-.03 1.834.301 2.713.12.316-.046.478-.366.43-.312-.046-.514.042-.42.372.082.294.356.323.606.211.444-.198 1.06-.269 1.175-.808.15-.704.686-1.255.78-1.917.178-1.259 1.091-1.782 2.044-2.131 1.685-.616 3.135-1.474 4.197-2.952.158-.22.492-.312.746-.463.302-.937 1.24-1.234 1.912-1.738 1.307-.98 2.963-1.231 4.501-1.711.133-.042.35-.064.43.011.925.872 1.933.318 2.916.194.304-.313.644-.6.9-.95.6-.817 1.444-1.222 2.386-1.345.989-.129 1.92-.414 2.853-.729.692-1.61 1.11-1.832 2.801-1.54.342.06.705.126 1.038.07.612-.101 1.078-.02 1.347.613.038.09.292.183.375.14.205-.107-.026-.21-.057-.321-.245-.889-.107-1.256.757-1.34 1.117-.109 2.156-.347 3.114-.94.262-.161.591-.204.868-.065.59.295.667.08.848-.5.243-.78 1.143-1.057 1.745-1.567.145-.123.509-.168.51-.254.024-1.407 1.432-2.186 1.539-3.61.079-1.045.648-2.005 1.698-2.551.482-.251.925-.594 1.347-.942.425-.35.72-.756.047-1.179-.125-.079-.26-.174-.335-.295-.239-.39-.2-.753.336-.652.675.127 1.06-.155 1.333-.687.147-.286.76-.426.47-.793-.307-.386-.608.077-.85.29-.389.34-.79.465-1.198.089-.46-.423-.805-.937-.553-1.593.267-.696.517-1.412 1.064-1.964.244-.247.565-.484.668-.788.166-.49.393-.767.927-.796.344-.02.558-.177.364-.586-.253-.535.13-.825.465-1.135.658-.608.772-.603 1.027.253.108.36.262.65.532.874.529.442.622.99.456 1.62.8.25 1.126.897 1.374 1.626.08.233.235.483.539.398.265-.073.372-.343.387-.588.015-.24-.103-.489-.097-.732.012-.495.17-.834.708-.4.426.342.636.088.78-.272.153-.383.268-.842-.3-.954-.427-.084-.688-.384-1.034-.565-.358-.187-.5-.485-.33-.873.124-.284.271-.488.674-.386.657.166.828-.408 1.063-.827.468-.836.71-.92 1.435-.412.312.219.495.63.943.646.207-.531.1-1.159.684-1.578.873-.626.878-.92-.006-1.424-1.115-.637-.91-1.172-.518-2.13.132-.323.407-.629.825-.434.484.225.248.543.066.862-.11.194-.314.433-.02.633.022.015.214-.322.372-.392 1.105-.485 1.58-1.283 1.384-2.501-.061-.377.124-.544.536-.294.683.416.45-.66.959-.617.992.085.533-.407.302-.806-.1-.17-.178-.354-.27-.53-.446-.85-.218-1.579.717-1.815.647-.163.972-.392.948-1.076-.01-.302.093-.622.464-.66.292-.031.426.2.518.448.051.14.087.336.192.395.36.202.298.9.73.826.423-.074.354-.647.466-1.018.042-.143.115-.277.176-.414.459-1.033.997-1.126 1.756-.266.258.293.459.653.624 1.01.176.384.447.559.825.442.39-.121.583-.58.453-.846-.628-1.287.287-2.166.72-3.18.236-.552.545-.663 1.033-.302.321.239.666.524 1.078.468.778-.106 1.25.183 1.468.925.014.047.038.124.067.13 1.505.257 1.985 1.843 3.221 2.479.99.51.953.6.624 1.762-.105.372-.195.707.402.674.286-.015.27.203.222.411-.09.39-.182.778-.253 1.17-.028.151.017.342.18.369.21.034.217-.173.212-.314-.036-.889.406-1.64.69-2.436.267-.747.72-1.077 1.294-.725.782.479 1.685.574 2.458 1.001.378.209.68.813.592-.242-.044-.537.505-.445.92-.332.355.097.764.754 1.083.02.255-.588.5-1.243-.14-1.785-.151-.128-.342-.21-.496-.336-.786-.644-.755-.84-.236-1.722.424-.719 1.168-1.143 1.46-2.033.213-.649-.096-1.313.263-1.853.349-.524 1.123-.311 1.56-.812.345-.395.675-.62.308-1.242-.397-.674-.164-1.214.357-1.946.584-.82.996-1.047 1.854-.758.121.04.382-.004.412-.078.122-.297-.197-.232-.327-.31-.392-.231-.607-.508-.38-.98.244-.504.644-.418 1.017-.239.52.252.725.14.704-.45-.011-.332.222-.557.52-.67.467-.175.939-.32 1.242-.773.124-.184.313-.14.528-.058 1.6.604 3.21.977 4.816.01.682.3 1.233-.774 1.957-.18.183.15.205-.069.224-.195.17-1.123-.186-2.17-.57-3.182-.24-.634-1.077-.694-1.682-.142-.532.484-.867.36-1.172-.196-.144-.263-.294-.526-.4-.804-.224-.584-.01-.95.585-1.134.873-.271 1.868.128 2.683-.517.153-.12.377.078.408.303.048.344.002.716.114 1.034.134.378.395.76.898.483.675-.371 1.161-.058 1.575.417 1.056 1.213 2.207 2.002 3.85 1.057.226-.13.527-.16.674.086.74 1.245 2.2 1.03 3.255 1.635.1.059.345.028.42-.055.958-1.064 1.71-.218 2.424.307.725.532 1.314.645 1.93-.116.15-.185.411-.276.615-.42.888-.626 1.416-.918 2.257.21.364.487 1.243.496 1.209 1.383-.014.339.343.278.587.21.435-.123.641-.636 1.148-.663.219-.011.61.032.549-.321-.053-.31-.4-.195-.634-.152-.252.045-.495.054-.734-.048-.15-.065-.267-.197-.228-.344.182-.666.86-.785 1.331-1.107.329-.225.478.198.627.445.245.406.508.606 1.08.564.945-.068 1.403.827.861 1.605-.308.442-.745.782-.964 1.312-.215.522-.734.87-.528 1.612.12.434-.301.94-.76 1.196-.474.262-.99.669-1.472.648-1.214-.052-1.1.909-1.386 1.568-.127.29-.032.55.202.808 1.015 1.116 1.005 1.253-.056 2.52v.001c-.136.826-.87 1.318-1.145 2.072-.12.329-.398.374-.738.316a5.714 5.714 0 0 0-1.17-.075c-.292.01-.412.27-.453.522-.055.328.153.481.437.401.626-.176.985-.07.879.678-.058.41.211.627.49.853.43.35.795.765.886 1.334.083.514.312 1.056-.386 1.412-.358.183-.233.492.105.671.52-.781 1.31-1.138 2.171-1.387.195-.056.483-.11.553.05.215.496.187 1.225 1.075.87.406.542 1.022.74 1.605.999.124.054.238.189.299.314.162.335.027.856.54.962.417.087.739-.232 1.102-.37.274-.105.544-.22.816-.331.615 1.273 1.907 1.624 3.03 2.192.201.101.656.038.622.263-.12.777.572.579.834.85 1.487 1.537 3.512 1.579 5.356 2.08 1.106.3 1.933.764 2.233 1.928.077.297.202.643.498.709 1.824.406 3.24 1.814 5.138 2.063.315.041.49.256.566-.195.007-.046.039-.11.075-.125 1.636-.69 2.61-2.185 3.95-3.231.393-.306.573-.632.263-.987-.499-.57-.188-1.007.099-1.48.052-.087.097-.181.167-.249 1.07-1.038 1.175-2.262.916-3.679-.275-1.504.146-2.977.69-4.389.474-1.23.605-2.39-.321-3.513-.41-.498-.271-1.143-.063-1.724.267-.75.414-1.46-.415-1.982a.477.477 0 0 1-.21-.526c.312-1.018.02-2.24.99-3.033.258-.21.257-.487.075-.644-1.096-.946-.151-1.92.287-2.424.538-.62.4-1.675 1.336-1.968.042-.014.077-.191.046-.264-.026-.065-.155-.136-.226-.125-.195.03-.38.119-.575.152-.604.106-.982-.157-1.037-.764-.048-.54.456-1.143.985-1.102.413.032.683-.174.562-.43-.395-.838.045-1.559.181-2.321.19-1.06.34-2.123.264-3.2-.032-.464.012-.806.573-.823.431-.013.574-.328.712-.664.15-.364.297-.87.799-.69.639.23.299.71.135 1.11 1.514.217 1.742 1.397 1.927 2.609.622.526.147 1.289.394 1.92.187.475.164.938.884.913.653-.022.846.469.677 1.025-.146.483-.192.96-.178 1.453 1.058.25 1.711.889 1.841 1.992.024.199.053.361.146.547.599 1.187.552 1.53-.49 2.243-.336.23-.175.214.017.285.186.069.387.098.577.158.875.28 1.152.554.932 1.373-.216.804-.028 1.44.286 2.144.408.914.559 1.904.672 2.902.06.533.43.654.828.325.189-.156.35-.358.483-.565.447-.691 1.101-.824 1.873-1.006 1.075-.255 1.71-.15 2.017.97.13.477.634.621.96.904.476.413 1.044.717 1.389 1.28.139.227.337.352.622.313.725-.099.804.242.727.89-.122 1.03-.184 2.092.288 3.073.263.546.066.833-.434 1.047a2.126 2.126 0 0 0-.616.397.462.462 0 0 0-.1.552c.112.204.333.21.524.132.182-.073.335-.222.518-.293.528-.205 1.042 0 .932.536-.338 1.643.51 2.797 1.311 4.053.375.586 1.03.736 1.353 1.182.31.43-.07 1.138.634 1.664.568.424.854 1.339.388 2.164-.16.282-.244.616-.094.859.443.716.348 1.417.079 2.14-.171.462.094.71.406 1.008.793.76.78.788-.001 1.584.736-.052.81.626.982 1.056.291.734.613 1.261 1.48 1.434.567.114.733.52.01.82-.118.05-.226.204-.27.333a.54.54 0 0 0 .034.406c.089.144.255.114.388.014.693-.52 1.405-.746 2.324-.582.365.065.648-.014.956.32a2.733 2.733 0 0 0 1.68.86c.225.03.368-.012.422-.233.236.27.323.593.394.94.115.566.435.897 1.069.71.503-.149.686.039.8.554.181.82.244.823.972.337.195-.13.392-.205.525-.052.912 1.058 2.324 1.288 3.396 2.088.549.409.607.757.11 1.184-.541.464-.385.809.094 1.2.38.312.703.681 1.109.984.744.554 1.394 1.219 1.74 2.15.215.577.289 1.278.961 1.62.145.074.303.348.276.497-.269 1.468.998 2.457 1.147 3.787.03.27.165.489.447.528.545.074.776.348.736.91-.012.165.146.363.268.512.185.227.406.522.737.323.282-.17.11-.441-.009-.66-.358-.656.137-.624.53-.675.254.237.485.84.804.036l.157-.163c.568.244 1.098.764 1.771.248v.02c.674.162 1.333.85 1.253 1.604-.152 1.437.74 2.82.138 4.276-.141.342.238.504.567.49.397-.016.793-.067 1.188-.112.531-.059.837.274 1.09.655.182.275.252.571-.224.645-.097.015-.266.01-.28.055-.345 1.032-.835 1.257-1.666.403-.253-.26-1.44.204-1.682.598-.113.185-.103.446.17.446 1.02-.002 2.042-.136 3.058.081.042.01.1-.017.141-.041.335-.2.204-1.102.87-.729 1.287.72 3.232.412 3.756 2.348.13.48.369 1.001-.446 1.118-.145.02-.229.195-.183.353a.288.288 0 0 0 .344.211c.49-.113.855.17 1.25.358.278.793-.34 1.427-.382 2.162-.009.138.014.327.101.41.127.122.258-.008.34-.132.308-.47 1.034-.684.863-1.457-.04-.182.031-.415.307-.409.16.004.264.114.315.265.388 1.148 1.087 1.959 2.262 2.407.73.278.423.799-.009 1.153-.463.38-.177.538.136.762.494.353.433-.054.488-.33.073-.374.222-.674.684-.614.548.07.577.472.55.893-.017.247.018.57-.12.723-.65.714.254 1.156.262 1.751.009.672-.523 1.198-.453 1.862.019.176.203.336.314.502.513.764.582 1.62.257 2.43-.388.96-.225 1.776.17 2.692.349.81 1.01 1.713.093 2.62-.192.19-.099.406.146.436 1.828.225 2.052 1.81 2.5 3.1.212.608.417 1.485-.55 1.947-.284.136-.047.453.218.51.881.192.837.844.568 1.39-.745 1.518-1.052 3.151-1.161 4.785zM1.836 76.026c.265.209.52.44.87.501-.219-.293-.528-.426-.87-.501zm6.28 33.911c.096-.078.292-.117.094-.306l-.094.306zm4.662-42.624c.162.073.329.147.492.012.087-.071.053-.21-.03-.194-.16.029-.31.114-.462.182zm9.968-3.099c-.063-.051-.144-.08-.22-.117.025.077.049.156.082.23.035.08.064.186.13.221.093.05.187-.022.165-.126-.016-.077-.09-.154-.157-.208zm5.927-3.15c.117.286.066.726.59.638.07-.011.177-.131.172-.194-.037-.505-.46-.375-.762-.443zm5.138 87.549c-.029-.072-.056-.144-.09-.213-.038-.08-.065-.182-.132-.226-.095-.065-.182-.004-.146.098.027.078.11.14.177.2.059.052.126.095.191.14zM51.319 40.92c-.083.112-.176.218-.245.338-.124.216-.242.444-.138.699.02.045.192.088.231.056.216-.18.172-.439.166-.682-.003-.137-.009-.274-.014-.41zm6.156-3.336c-.045.073-.097.143-.128.223-.114.29-.458.56-.108.899.047.045.196.046.256.005.358-.244.286-.567.124-.893-.04-.082-.095-.157-.144-.234zm21.08 93.935c-.118-.053-.251-.263-.328.055l.327-.055zm40.373-102.255c.024.135.032.278.091.393.061.118.251.3.277.283.235-.154.099-.344-.025-.481-.085-.093-.223-.136-.343-.195zm17.636 102.833c-.006-.077.03-.189-.135-.132l.135.132zm18.35 33.986c-.524.014-.782-.356-1.083-.687-.124-.135-.346-.317-.475-.285-.336.082-.145.404-.175.625-.032.235-.041.474-.059.711.557-.22 1.023-.2 1.377.399.15.252.45.133.666-.003a.49.49 0 0 0 .217-.515c-.044-.265-.278-.25-.469-.245zm.258-164.779c-.007.028.036.092.07.105.25.1.286-.088.342-.249-.155 0-.347-.11-.412.144zm9.239 167.852c-.117.106-.048.21-.01.315.029-.076.06-.152.08-.23.004-.022-.046-.057-.07-.085zm39.15-103.49c-.03-.08-.087-.15-.136-.222-.003.132-.001.266-.012.398-.023.286-.052.571-.085.857-.018.16-.088.515.166.31.429-.348.24-.882.067-1.343zM87.854 9.356c-.33-.04-.45-.316-.297-.529.337-.47.445-.898.321-1.495-.089-.43.57-.459.831-.759.278-.32-.053-1.202.798-.967.477.13.861.453 1.1.944.197.404.505.454.787.033.027-.04.07-.102.106-.101.964.021 1.877-.034 2.37-1.085.06-.125.383-.01.53.13.325.307.638.627.945.951.247.26.272.616-.018.776-.808.443-1.212 1.3-1.958 1.805-.343.232-.64.474-1.054.367-.713.037-1.41-.186-2.09.084-.046.017-.1.007-.148.017-.78.178-.636-1.092-1.064-.865-.367.195-.569.767-1.159.695zm50.882 142.63c.386.044.649.3.672.683.025.423-.3.597-.661.674-.367.077-.672-.115-.985-.266-.174-.084-.364-.135-.481-.178-.349.09-.462.246-.514.536-.138.764-.564.995-1.38.883-.859-.118-1.71.309-2.607.286-1.244-.031-1.321-.079-1.778-1.31-.165-.443-.217-.77.179-1.03.363-.24.74-.287 1.015.177.21.35.365.398.591-.037.476-.917 2.136-1.595 3.006-1.29.203.071.292.228.41.391.497.685 1.183.795 1.958.585.189-.051.39-.125.575-.103zm58.387 34.1c-.794 1.373-.019 2.67.171 3.997.177 1.233.104 2.47.047 3.706-.01.22-.094.333-.337.402-1.1.315-1.282.98-1.137 2.126.115.913-.188 1.931-.272 2.907-.02.247-.174.551-.012.724.81.86-.225 1.44-.317 2.156-.053.406-.505.48-.821.172-.243-.238-.494-.539-.574-.854-.098-.391.164-.599.597-.662.286-.042.159-.305.027-.456-.217-.25-.536-.22-.828-.276-.578-.11-.507-.369-.122-.67.157-.123.33-.23.473-.368.16-.156.579-.198.435-.48-.144-.283-.435-.027-.647.065a.981.981 0 0 1-.728.042c-.15-.049-.365-.05-.34.134.159 1.141-1.055 2.054-.46 3.311.28.594.19 1.36.293 2.043.04.272.041.527-.24.622-.364.125-.542-.167-.684-.432-.066-.124-.044-.293-.088-.434-.043-.134-.09-.33-.187-.371-.216-.091-.383.077-.478.256-.211.394-.348.842-.84.998-.152.048-.29.136-.257.315.054.29.588.554.084.869-.374.234-.643-.168-.955-.274-.823-.28-1.825.336-2.533-.532-.128-.156-.22.074-.285.188-.434.769-.72.47-.968-.133-.134-.322-.373-.634-.396-.963-.042-.582-.34-.864-.814-1.128-.854-.476-1.43-1.218-1.709-2.164-.058-.196-.105-.373-.262-.516-1.16-1.063-1.17-2.617-1.574-3.973-.204-.682.444-.25.762-.226-.37-.634-.79-1.236-.964-1.972-.127-.54-.468-.947-.85-1.37-.925-1.024-1.926-2.043-1.927-3.59 0-.29-.2-.58-.204-.87-.007-.451-.816-.823-.224-1.275.701-.537-.392-.78-.117-1.273.185-.332.183-.642.694-.418.644.282 1.276.343 1.916-.157.306-.238.752-.035 1.143.111 1.72.644 3.309 1.654 5.178 1.885.554.069.567.464.548.889-.007.156.05.324.222.341.195.02.232-.154.236-.308.014-.58.377-.684.817-.53.974.337 1.38-.274 1.666-.998.142-.36.28-.493.643-.371.997.334 1.833-.183 2.517-.72.43-.337.756-.535 1.283-.506.229.013.499-.089.693-.222.345-.237.532-.808 1.103-.519.582.295 1.131.647 1.526 1.186.122.165.184.38.077.566z"/></g></g></svg>