<svg xmlns="http://www.w3.org/2000/svg" width="155" height="243" viewBox="0 0 155 243"><g><g transform="rotate(-11 77.5 121.5)"><path fill="#f5f5f5" d="M34.6-7l-7.545 27.445-7.073 32.884-5.345 25.57-.628 15.243 1.886 7 5.501 4.192-.314 6.164-6.13 6.936-7.074 10.405-1.414 4.571-1.886 1.734-2.83 1.261-6.759 8.355-.628 4.887-.63 1.734.944 1.576 4.087-.157 1.729 3.626-3.773 9.143-1.886 6.62L-19 227.838l32.537 7.093 62.088 12.454 54.7 9.616 7.702-46.03L144 172.977l-4.244-3.784-.629-4.098-1.257-1.734-3.301 1.576-1.1 4.099-5.03.788-6.13-2.522-5.973.157-3.93 1.104-5.344-2.365-3.773.316-3.772 3.152-3.144-1.734-1.1-6.305 1.1-4.572-3.93-4.571-5.186-4.1-4.244-20.65-.158-7.409-.471-.158-.315.63-8.016 5.518-2.672-.315-4.558-5.36-.315-4.887 11.003-27.003-.629-3.059-5.344-1.812-.943-1.86-4.087-5.455-7.23-16.127-5.03-2.411-3.144-7.804 2.044-7.298-5.03-11.95 6.916-33.924z"/></g></g></svg>