<svg xmlns="http://www.w3.org/2000/svg" width="245" height="147" viewBox="0 0 245 147"><g><g><path fill="#f5f5f5" d="M243.427 68.854l-6.097-8.146-14.246 6.113-18.305-5.096s-10.168-9.156-11.184-12.205c-1.016-3.05 1.016-7.123 1.016-7.123l-2.032-16.284-.816-5.264c-1.424-.829-2.524-1.49-3.256-1.852-4.07-2.04-26.447-16.284-26.447-16.284L141.044 0l-4.071 4.073 3.391 11.531s-28.479-.68-30.511-.68c-2.04 0-11.528-.68-13.56-1.353-2.04-.686-7.463-2.713-7.463-2.713l-6.784 8.813-.673 8.139-20.343-8.813-2.712 4.073 3.385 7.459-23.049 30.522-27.806 32.556L0 122.777l13.56.68 3.392-16.965 28.479-6.1 5.43 18.312 4.065 21.03 2.207 2.35 21.179 2.189 11.443-4.196 6.868.764h9.916l13.353-15.261-1.91-9.92 4.576-9.161 12.59-4.196 2.29 17.553s12.202 7.246 13.73 8.01c1.527.757 1.145 7.245 1.145 7.245s6.103 9.544 8.006 11.454c1.91 1.904 9.54-3.056 9.54-3.056l-1.145-4.578-1.145-8.398 8.013-15.643 2.284-14.88h9.16v12.212l11.818-.382 9.923-5.341 8.388 1.146 3.437 6.48 4.576 1.535 3.049-1.91-1.528-6.87-5.722-12.211 5.34-4.578 5.347-4.196v8.774s5.715-2.286 8.388-3.432S245 86.66 245 86.66l-3.819-7.252z"/></g></g></svg>