<svg xmlns="http://www.w3.org/2000/svg" width="22" height="22" viewBox="0 0 22 22"><g><g><path fill="#fff" d="M15.312.953c2.747 1.19 4.579 3.389 5.678 6.136a10.763 10.763 0 0 1-.183 8.426c-1.19 2.656-3.297 4.67-6.045 5.77-1.282.457-2.564.732-3.938.732-2.656 0-5.22-.916-7.235-2.656-1.282-1.099-2.38-2.656-3.022-4.304-.183-.458.092-1.007.55-1.19.457-.184 1.007.091 1.19.549.55 1.374 1.465 2.564 2.564 3.572 2.565 2.29 6.136 2.839 9.342 1.648 2.29-.916 4.03-2.564 5.037-4.854 1.007-2.29 1.099-4.762.183-7.052-.916-2.29-2.656-4.03-4.854-5.037-2.29-1.007-4.762-1.099-7.052-.183-1.465.55-2.656 1.465-3.663 2.656L5.421 4.8c.458-.183 1.007.091 1.007.64.183.459-.183 1.008-.64 1.1l-3.756.916H1.85c-.458 0-.824-.275-.916-.733L.018 2.968C-.074 2.51.2 2.052.658 1.87c.55-.091 1.008.183 1.1.733l.458 1.648c1.19-1.557 2.839-2.747 4.67-3.48a10.763 10.763 0 0 1 8.426.183m-4.396 4.58c.55 0 .916.366.916.916v5.042l3.297 2.475c.366.275.458.917.183 1.284-.183.275-.458.366-.733.366-.183 0-.366-.091-.55-.183l-3.663-2.75c-.274-.183-.366-.458-.366-.733v-5.5c0-.55.366-.918.916-.918"/></g></g></svg>