<?xml version="1.0" encoding="UTF-8"?>
<svg width="269px" height="242px" viewBox="0 0 269 242" version="1.1" xmlns="http://www.w3.org/2000/svg" xmlns:xlink="http://www.w3.org/1999/xlink">
    <!-- Generator: Sketch 64 (93537) - https://sketch.com -->
    <title>Group 2</title>
    <desc>Created with Sketch.</desc>
    <g id="03-News-Pages" stroke="none" stroke-width="1" fill="none" fill-rule="evenodd">
        <g id="504.Gateway.time-out" transform="translate(-679.000000, -247.000000)">
            <g id="Group-3" transform="translate(466.000000, 221.000000)">
                <g id="Group-2" transform="translate(329.618812, 156.000000) rotate(-30.000000) translate(-329.618812, -156.000000) translate(176.000000, 65.000000)">
                    <g id="Group" transform="translate(0.000000, 71.387931)">
                        <ellipse id="Oval" fill="#343434" cx="152.974138" cy="55.3060345" rx="59.6206897" ry="55.3060345"></ellipse>
                        <path d="M128.805004,28.7574386 C137.403841,29.9823646 145.721713,30.5948276 153.758621,30.5948276 C161.594047,30.5948276 169.405459,30.0126878 177.192854,28.8484084 C180.973538,28.283198 184.496603,30.8898243 185.061846,34.6705034 C185.112499,35.0093046 185.137931,35.3513987 185.137931,35.6939655 C185.137931,40.573468 181.562063,44.7159797 176.734874,45.4285718 C169.326964,46.5221676 161.668213,47.0689655 153.758621,47.0689655 C145.584119,47.0689655 137.385524,46.4849274 129.162834,45.3168511 C124.371144,44.6361429 120.810345,40.5337651 120.810345,35.6939655 C120.810345,31.8243638 123.947277,28.6874319 127.816878,28.6874319 C128.147492,28.6874319 128.477692,28.7108326 128.805004,28.7574386 Z" id="Rectangle" fill="#F4F7FB"></path>
                        <path d="M6.79997778,47.8501747 L95.3282128,33.2174085 C102.761588,31.9887516 109.783552,37.0186691 111.012209,44.4520439 C111.13375,45.1873704 111.194828,45.9314206 111.194828,46.6767241 C111.194828,55.5585104 103.994717,62.7586207 95.112931,62.7586207 L6.89224138,62.7586207 C3.08576157,62.7586207 4.66159331e-16,59.6728591 0,55.8663793 C-4.86910083e-16,51.8904568 2.87727927,48.4985546 6.79997778,47.8501747 Z" id="Rectangle" fill="#343434"></path>
                        <path d="M202.136185,47.8501747 L290.66442,33.2174085 C298.097794,31.9887516 305.119759,37.0186691 306.348416,44.4520439 C306.469957,45.1873704 306.531034,45.9314206 306.531034,46.6767241 C306.531034,55.5585104 299.330924,62.7586207 290.449138,62.7586207 L202.228448,62.7586207 C198.421968,62.7586207 195.336207,59.6728591 195.336207,55.8663793 C195.336207,51.8904568 198.213486,48.4985546 202.136185,47.8501747 Z" id="Rectangle-Copy" fill="#343434" transform="translate(250.933621, 46.676724) scale(-1, 1) translate(-250.933621, -46.676724) "></path>
                        <ellipse id="Oval" fill="#343434" cx="251.884339" cy="64.7198276" rx="14.1860632" ry="13.7284483"></ellipse>
                        <ellipse id="Oval-Copy" fill="#343434" cx="54.1946839" cy="64.7198276" rx="14.1860632" ry="13.7284483"></ellipse>
                    </g>
                    <path d="M212.332949,110.298553 C218.586106,113.400083 223.13753,114.669085 225.98722,114.105558 C228.83691,113.542032 232.466232,110.655287 236.875186,105.445324" id="Line-2" stroke="#343434" stroke-width="10" stroke-linecap="round"></path>
                    <path d="M237.372528,103.014937 C243.625685,106.116467 248.177109,107.385469 251.026799,106.821942 C253.876489,106.258416 257.505811,103.371671 261.914765,98.1617083" id="Line-2-Copy-4" stroke="#343434" stroke-width="10" stroke-linecap="round" transform="translate(249.643646, 102.556810) rotate(-10.000000) translate(-249.643646, -102.556810) "></path>
                    <path d="M260.584162,91.052586 C266.837319,94.1541158 271.388743,95.4231176 274.238433,94.8595911 C277.088124,94.2960647 280.717446,91.40932 285.126399,86.1993571" id="Line-2-Copy-5" stroke="#343434" stroke-width="10" stroke-linecap="round" transform="translate(272.855281, 90.594459) rotate(-20.000000) translate(-272.855281, -90.594459) "></path>
                    <path d="M248.04753,65.6977047 C254.300687,68.7992345 258.852111,70.0682362 261.701801,69.5047098 C264.551491,68.9411834 268.180813,66.0544387 272.589767,60.8444758" id="Line-2-Copy-6" stroke="#343434" stroke-width="10" stroke-linecap="round" transform="translate(260.318648, 65.239577) rotate(-20.000000) translate(-260.318648, -65.239577) "></path>
                    <path d="M217.285621,22.7759551 C227.879243,28.3118835 235.589918,30.5769279 240.417646,29.5710881 C245.245374,28.5652484 251.393895,23.4126906 258.863208,14.1134146" id="Line-2-Copy-7" stroke="#343434" stroke-width="10" stroke-linecap="round" transform="translate(238.074414, 21.958242) scale(-1, 1) rotate(-100.000000) translate(-238.074414, -21.958242) "></path>
                    <path d="M191.951489,98.5313119 C198.204646,101.632842 202.75607,102.901844 205.60576,102.338317 C208.45545,101.774791 212.084772,98.888046 216.493726,93.6780831" id="Line-2-Copy" stroke="#343434" stroke-width="10" stroke-linecap="round" transform="translate(204.222607, 98.073185) rotate(-30.000000) translate(-204.222607, -98.073185) "></path>
                    <path d="M196.427568,76.6578256 C202.680725,79.7593554 207.232149,81.0283572 210.081839,80.4648307 C212.931529,79.9013043 216.560851,77.0145596 220.969805,71.8045967" id="Line-2-Copy-2" stroke="#343434" stroke-width="10" stroke-linecap="round" transform="translate(208.698686, 76.199698) scale(-1, 1) rotate(-70.000000) translate(-208.698686, -76.199698) "></path>
                    <path d="M175.239866,38.9334821 C188.232044,45.2997999 197.688532,47.9046009 203.60933,46.7478852 C209.530129,45.5911695 217.070767,39.665728 226.231245,28.9715607" id="Line-2-Copy-3" stroke="#343434" stroke-width="10" stroke-linecap="round" transform="translate(200.735555, 37.993112) scale(-1, 1) rotate(-70.000000) translate(-200.735555, -37.993112) "></path>
                </g>
            </g>
        </g>
    </g>
</svg>