<svg xmlns="http://www.w3.org/2000/svg" width="40" height="40" viewBox="0 0 40 40"><g><g><path fill="#fadb83" d="M5.987 34.743a2.663 2.663 0 0 1-.38-3.235l.166.097.585-1.039-.011-.007 3.415-4.162.504.129.26-1.06c2.72-3.314 5.534-6.58 8.421-9.775l.957.509 5.155-5.338a271.703 271.703 0 0 0-13.706 15.455l-4.62 5.63a1.45 1.45 0 0 0 .084 1.938c.5.51 1.358.549 1.899.086l5.515-4.716A269.836 269.836 0 0 0 31.523 13.09l3.12-3.185a16.306 16.306 0 0 0 4.162-7.473.992.992 0 0 0-.254-.942.945.945 0 0 0-.924-.26 15.807 15.807 0 0 0-7.32 4.248l-3.12 3.186-.534.546 1.125-1.164-1.33-.327 3.022-3.087A16.968 16.968 0 0 1 37.328.067c.737-.19 1.51.03 2.043.575.54.55.75 1.33.562 2.086a17.516 17.516 0 0 1-4.469 8.028l-3.022 3.087-.077-.327-1.141.28.244 1.037a270.894 270.894 0 0 1-16.202 15.105l-.092-.365-1.137.298.232.921-3.428 2.934-.228-.43-1.033.57.343.646-.454.388a2.552 2.552 0 0 1-1.657.615c-.69 0-1.338-.274-1.825-.772zm-.38-3.235l-4.527-2.66a2.174 2.174 0 0 1-1.06-1.61 2.201 2.201 0 0 1 .608-1.841l1.155-1.18a2.12 2.12 0 0 1 2.036-.576l6.732 1.722-.025.103-.073.088-.691.843-6.228-1.592a.962.962 0 0 0-.921.26l-1.155 1.18a.998.998 0 0 0-.275.833c.041.31.216.576.48.73l4.684 2.751-.514.627a2.7 2.7 0 0 0-.227.322zm9.659-1.57l1.645 6.536a2.04 2.04 0 0 1-.514 1.902l-1.016 1.038a1.918 1.918 0 0 1-1.645.568 1.942 1.942 0 0 1-1.441-.991l-2.372-4.48.918-.785 2.48 4.682a.772.772 0 0 0 .571.385.762.762 0 0 0 .659-.226l1.016-1.04a.813.813 0 0 0 .206-.759l-1.504-5.976.713-.61.284-.244zm17.176-16.095l1.4 5.951-.698.634.782.896.227-.207.375 1.594-.742.443.594 1.035.435-.26 2.592 11.017a2.1 2.1 0 0 1-.534 1.935l-.946.967a1.97 1.97 0 0 1-1.73.578c-.641-.1-1.18-.495-1.48-1.082l-7.269-14.518 1.045-.546 7.268 14.514a.829.829 0 0 0 1.336.206l.946-.967a.877.877 0 0 0 .223-.807l-4.798-20.393c.293-.296.586-.594.877-.892zM18.947 15.69L3.441 7.438a2.035 2.035 0 0 1-1.06-1.51 2.064 2.064 0 0 1 .567-1.768l.946-.967a1.994 1.994 0 0 1 1.894-.545l10.737 2.635-.22.385 1.013.605.399-.697 1.546.38-.152.175.876.797.57-.655 5.89 1.446-.096.1c-.292.297-.583.596-.874.896L5.514 3.813a.826.826 0 0 0-.79.227l-.946.967a.864.864 0 0 0-.237.738.85.85 0 0 0 .442.63l15.694 8.352 4.295-4.448a271.752 271.752 0 0 0-5.025 5.412zm-5.482 11.314c.399-.344.798-.69 1.195-1.035l.767.911c-.399.348-.799.694-1.2 1.039zm2.372-2.07c.394-.35.786-.702 1.178-1.054l.773.906c-.393.354-.787.707-1.182 1.058zm2.35-2.11c.388-.353.777-.707 1.164-1.062l.784.892c-.388.357-.779.713-1.17 1.067zm2.323-2.13c.386-.358.77-.717 1.153-1.077l.795.883c-.386.362-.771.722-1.159 1.081zm2.3-2.16c.381-.363.762-.726 1.14-1.09l.805.873c-.38.366-.763.731-1.146 1.095zm2.274-2.186c.38-.367.757-.735 1.134-1.104l.819.864c-.379.37-.758.74-1.14 1.108zm2.25-2.215c.373-.37.744-.743 1.115-1.116l.824.853c-.372.376-.746.75-1.12 1.122zm3.05-1.393l-.827-.845 1.102-1.132.825.848zm2.217-2.26l-.83-.847 1.107-1.13.83.847zm-7.542.38c.53-.553 1.061-1.103 1.594-1.65zm-1.087-.582c.5-.524 1.002-1.045 1.505-1.564h.005zm-3.415-4.006l-1.294-.317.74-.85a.885.885 0 0 0 .213-.68.874.874 0 0 0-.35-.619.86.86 0 0 0-.71-.169.855.855 0 0 0-.568.418l-.871 1.52-1.192-.293 1.049-1.833c.29-.506.779-.865 1.34-.985.562-.12 1.15.008 1.615.352a2.113 2.113 0 0 1 .35 3.086zm15.999 16.62c.496-.297.85-.796.967-1.37a2.133 2.133 0 0 0-.365-1.676 2.037 2.037 0 0 0-1.433-.845 2.034 2.034 0 0 0-1.577.514l-.306.278.311 1.323.778-.705a.841.841 0 0 1 .668-.218.873.873 0 0 1 .626.384.886.886 0 0 1 .147.7.872.872 0 0 1-.41.58l-1.434.853.287 1.219z"/></g></g></svg>