<svg xmlns="http://www.w3.org/2000/svg" width="42" height="39" viewBox="0 0 42 39"><g><g><path fill="none" stroke="#fadb83" stroke-linecap="round" stroke-linejoin="round" stroke-miterlimit="50" stroke-width="1.19" d="M38.112 17H3.877v-2.985h34.235zM3.877 32.03h34.235v2.975H3.877zm35.704-19.463c.668.415.375 1.449-.41 1.449H2.821c-.77 0-1.066-1.01-.417-1.43L20.45 1.16a1.028 1.028 0 0 1 1.098 0zM1 35.014h40V38H1zm4.898-17.962h5.835v.988c0 .574-.462 1.04-1.033 1.04h-.164v10.893h.164c.571 0 1.033.465 1.033 1.039V32H5.898v-.988c0-.574.462-1.04 1.032-1.04h.164V19.08H6.93c-.57 0-1.032-.465-1.032-1.039zm8.12 0h5.835v.988c0 .574-.463 1.04-1.033 1.04h-.164v10.893h.164c.57 0 1.033.465 1.033 1.039V32h-5.835v-.988c0-.574.462-1.04 1.032-1.04h.164V19.08h-.164c-.57 0-1.032-.465-1.032-1.039zm8.118 0h5.836v.988c0 .574-.462 1.04-1.033 1.04h-.164v10.893h.164c.57 0 1.033.465 1.033 1.039V32h-5.836v-.988c0-.574.463-1.04 1.034-1.04h.164V19.08h-.164c-.57 0-1.034-.465-1.034-1.039zm12.758 2.027v10.894h.165c.57 0 1.032.465 1.032 1.039V32h-5.835v-.988c0-.574.462-1.04 1.033-1.04h.164V19.08h-.164a1.036 1.036 0 0 1-1.033-1.039v-.988h5.835v.988c0 .574-.462 1.039-1.032 1.039zM21 6.316a2.24 2.24 0 0 0-2.24 2.243A2.241 2.241 0 0 0 21 10.801a2.241 2.241 0 0 0 2.239-2.242 2.24 2.24 0 0 0-2.24-2.243z"/></g></g></svg>