<svg xmlns="http://www.w3.org/2000/svg" width="32" height="41" viewBox="0 0 32 41"><g><g><path fill="#fadb83" d="M7.608 4.16v1.923H3.167A1.28 1.28 0 0 0 1.9 7.364v30.433a1.28 1.28 0 0 0 1.267 1.28h25.667a1.28 1.28 0 0 0 1.266-1.28V7.364a1.28 1.28 0 0 0-1.266-1.28h-4.442V4.16h4.442C30.577 4.16 32 5.6 32 7.364v30.433C32 39.56 30.577 41 28.834 41H3.167C1.423 41 0 39.56 0 37.797V7.364c0-1.763 1.423-3.203 3.167-3.203zm1.267-.796h3.797C12.672 1.506 14.16 0 15.995 0s3.323 1.506 3.323 3.364h3.797v4.805H8.875zm8.54 0a1.43 1.43 0 0 0-1.42-1.442 1.43 1.43 0 0 0-1.42 1.442zM6.5 26.104v-5.989a.52.52 0 0 1 .258-.454c.164-.1.355-.11.529-.026l2.745 1.633a.55.55 0 0 0 .672-.153l2.882-4.264a.551.551 0 0 1 .692-.142l3.207 2.34a.547.547 0 0 0 .6-.05l6.53-5.831a.545.545 0 0 1 .577-.061.523.523 0 0 1 .308.48v12.516zm0 2.723h19v1.281h-19zm0 3.364h19v1.282h-19z"/></g></g></svg>