<svg xmlns="http://www.w3.org/2000/svg" width="40" height="41" viewBox="0 0 40 41"><g><g><path fill="#fadb83" d="M20.906 16.6a.715.715 0 0 1-.51-.212.727.727 0 0 1 0-1.028v-.001c.13-.13.31-.211.51-.211.188 0 .359.071.486.188l.023.024c.13.132.21.313.21.514 0 .19-.07.362-.185.49l-.025.024a.714.714 0 0 1-.509.212zm-6.839-1.604a.713.713 0 0 1-.509-.214l-.001.001a.738.738 0 0 1-.21-.518c0-.202.081-.385.211-.517l-.001-.002h.001a.716.716 0 0 1 1.018 0 .739.739 0 0 1 0 1.036l.001.001a.716.716 0 0 1-.51.213zm19.226-.235c-.2 0-.38-.08-.51-.21l-.002-.002a.727.727 0 0 1-.208-.514.718.718 0 0 1 1.23-.516.732.732 0 0 1-.001 1.03h.001a.718.718 0 0 1-.51.212zm-1.733-1.626a1.965 1.965 0 0 0 .356 2.281l.001.001.002.002a1.934 1.934 0 0 0 2.748 0v-.002l.002.002c.352-.355.57-.846.57-1.388 0-.54-.218-1.03-.57-1.386l-.002-.003a1.931 1.931 0 0 0-2.235-.372l-3.867-3.96a1.966 1.966 0 0 0-.4-2.316 1.931 1.931 0 0 0-2.71.037 1.966 1.966 0 0 0-.192 2.548l-3.79 5.411a1.929 1.929 0 0 0-1.941.49l-.001.002-.002-.002c-.107.11-.203.23-.283.362l-3.24-.764a1.964 1.964 0 0 0-.562-1.208l-.003-.003a1.93 1.93 0 0 0-2.749.002l-.001-.002c-.352.355-.57.846-.57 1.388 0 .276.056.537.158.775l-4.852 5.826a1.93 1.93 0 0 0-2.094.436l-.001.002-.001-.002c-.352.355-.57.846-.57 1.388a1.966 1.966 0 0 0 .61 1.426 1.93 1.93 0 0 0 2.71-.038l.003-.002c.352-.355.57-.845.57-1.386 0-.377-.106-.73-.29-1.03l4.739-5.689a1.928 1.928 0 0 0 2.338-.318l.001-.001.002.001c.108-.109.203-.23.283-.362l3.24.764c.042.472.249.896.562 1.211a1.933 1.933 0 0 0 2.791-.041c.33-.353.533-.827.533-1.347 0-.436-.142-.84-.381-1.166l3.788-5.406a1.933 1.933 0 0 0 1.437-.118zM6.707 23.425a.715.715 0 0 1-.486-.189l-.023-.024a.736.736 0 0 1 0-1.035h-.001a.715.715 0 0 1 1.02 0c.13.132.21.315.21.517a.74.74 0 0 1-.208.518l-.003.002a.716.716 0 0 1-.509.212zM2.698 3.204h34.604v23.713H2.698zM28.89 41c1.052 0 1.905-.86 1.905-1.922a1.913 1.913 0 0 0-1.905-1.922c-.473 0-.906.174-1.239.462l-6.699-3.902v-4.888h18.096c.525 0 .952-.43.952-.96 0-.531-.427-.962-.952-.962h-.477V3.203h.477c.525 0 .952-.43.952-.96 0-.531-.427-.962-.952-.962H20.952V0h-1.904v1.281H.952A.957.957 0 0 0 0 2.242c0 .53.426.961.952.961h.476v23.703H.952a.957.957 0 0 0-.952.961c0 .53.426.961.952.961h18.096v4.888l-6.7 3.902a1.888 1.888 0 0 0-1.238-.462c-1.052 0-1.905.86-1.905 1.922 0 1.061.853 1.922 1.905 1.922a1.913 1.913 0 0 0 1.872-2.275l6.066-3.533v1.645h1.904v-1.645l6.066 3.533A1.913 1.913 0 0 0 28.89 41z"/></g></g></svg>