<svg xmlns="http://www.w3.org/2000/svg" width="33" height="33" viewBox="0 0 33 33"><g><g><g opacity=".8"><path fill="#fff" d="M0 16.5C0 7.387 7.387 0 16.5 0S33 7.387 33 16.5 25.613 33 16.5 33 0 25.613 0 16.5zM16.798 8h.003zm-3.626.05c-.937.04-1.576.18-2.136.384a4.347 4.347 0 0 0-1.558.953c-.49.46-.79.921-1.016 1.465-.218.525-.367 1.126-.409 2.006C8.011 13.74 8 14.022 8 16.267s.01 2.526.053 3.408c.043.88.192 1.48.409 2.006a4.035 4.035 0 0 0 1.015 1.464c.489.46.98.743 1.558.955.56.204 1.2.343 2.137.384.938.04 1.238.05 3.628.05s2.689-.01 3.628-.05c.936-.04 1.577-.18 2.137-.384a4.343 4.343 0 0 0 1.557-.955c.49-.46.79-.92 1.016-1.464.216-.526.365-1.127.409-2.006.042-.882.053-1.163.053-3.408s-.011-2.527-.053-3.409c-.044-.88-.193-1.48-.409-2.006a4.041 4.041 0 0 0-1.016-1.465 4.339 4.339 0 0 0-1.558-.953c-.561-.204-1.2-.344-2.138-.384C19.488 8.01 19.19 8 16.8 8c-2.388 0-2.688.01-3.627.05z"/></g><g><path fill="#fff" fill-opacity=".8" d="M16.015 9.492h.79c2.349 0 2.627.008 3.555.048.858.036 1.324.171 1.634.284.41.15.704.33 1.011.619.308.289.499.564.659.95.12.291.264.729.303 1.535.042.871.051 1.133.051 3.34 0 2.205-.009 2.467-.051 3.339-.04.806-.183 1.243-.303 1.534-.16.386-.35.66-.659.95-.308.29-.6.468-1.01.618-.31.114-.777.248-1.635.285-.927.04-1.206.048-3.556.048s-2.628-.008-3.556-.048c-.858-.037-1.323-.172-1.634-.285a2.749 2.749 0 0 1-1.012-.618 2.553 2.553 0 0 1-.658-.95c-.12-.292-.264-.73-.303-1.535-.043-.872-.051-1.133-.051-3.34 0-2.208.008-2.469.05-3.34.04-.806.183-1.244.304-1.535.16-.386.35-.662.658-.95.308-.29.602-.47 1.012-.62.31-.113.776-.247 1.634-.285.812-.034 1.127-.044 2.767-.046zm5.487 1.373c-.583 0-1.056.446-1.056.996s.473.997 1.056.997c.583 0 1.056-.446 1.056-.997 0-.55-.473-.997-1.056-.997zm-4.703 1.159c-2.493 0-4.514 1.9-4.514 4.245s2.021 4.245 4.514 4.245c2.493 0 4.514-1.9 4.514-4.245 0-2.344-2.02-4.245-4.514-4.245z"/></g><g><path fill="#fff" fill-opacity=".8" d="M16.803 13.51c1.62 0 2.934 1.234 2.934 2.756 0 1.521-1.314 2.755-2.934 2.755s-2.933-1.234-2.933-2.755c0-1.522 1.313-2.756 2.933-2.756z"/></g></g></g></svg>