<svg xmlns="http://www.w3.org/2000/svg" width="33" height="33" viewBox="0 0 33 33"><g><g opacity=".8"><path fill="#fff" d="M0 16.5C0 7.387 7.387 0 16.5 0S33 7.387 33 16.5 25.613 33 16.5 33 0 25.613 0 16.5zm25-4.58a6.945 6.945 0 0 1-1.885.477c.677-.375 1.198-.968 1.443-1.675-.634.346-1.336.6-2.084.734a3.415 3.415 0 0 0-2.397-.956c-1.813 0-3.282 1.356-3.282 3.03 0 .236.028.468.084.69-2.728-.127-5.146-1.333-6.766-3.166a2.844 2.844 0 0 0-.444 1.523c0 1.052.58 1.979 1.46 2.522a3.483 3.483 0 0 1-1.486-.379v.038c0 1.468 1.13 2.693 2.632 2.971a3.564 3.564 0 0 1-1.482.052c.418 1.203 1.63 2.079 3.066 2.104a6.941 6.941 0 0 1-4.076 1.297c-.265 0-.526-.014-.783-.042a9.871 9.871 0 0 0 5.032 1.36c6.037 0 9.34-4.616 9.34-8.62 0-.13-.004-.261-.01-.392A6.4 6.4 0 0 0 25 11.92z"/></g></g></svg>