<svg xmlns="http://www.w3.org/2000/svg" width="22" height="22" viewBox="0 0 22 22"><g><g><path fill="#fff" d="M11 0c6.065 0 11 4.935 11 11s-4.935 11-11 11S0 17.065 0 11 4.935 0 11 0zm7.183 8.727a.374.374 0 0 0 .12-.411.371.371 0 0 0-.346-.25H13.07l-1.738-4.172c-.114-.271-.562-.271-.676 0L8.92 8.067H4.033a.376.376 0 0 0-.345.242.375.375 0 0 0 .113.41l3.945 3.249-1.138 4.818a.365.365 0 0 0 .554.389l3.833-2.435 3.833 2.435c.06.044.13.058.198.058a.347.347 0 0 0 .217-.073.36.36 0 0 0 .136-.389l-1.31-4.803z"/></g></g></svg>